<svg id="Layer_1" data-name="SattaSpace" xmlns="http://www.w3.org/2000/svg" viewBox="0 0 215 215">
  <defs>
    <style>.cls-1{fill:#050e1f;}.cls-2{fill:#00b4e6;}</style>
  </defs>
  <rect class="cls-1" width="215" height="215" rx="20.5" ry="20.5"/>
  <path class="cls-2" d="M103.19,109.13a4.37,4.37,0,1,0,4.37-4.37A4.37,4.37,0,0,0,103.19,109.13ZM107.5,107a2.15,2.15,0,1,1-2.15,2.15A2.15,2.15,0,0,1,107.5,107Z"/>
  <path class="cls-2" d="M163.84,144.5l.77-39.17c15.46-16.21,26.81-32.08,32.81-45.9,6.22-14.31,6.41-25.75.54-33.09-8.46-10.57-28.37-10.53-54.65.12L109.75,5.1,107.51,3l-2.18,2.07L37.19,48.41A25.1,25.1,0,0,0,25.51,69.69v53.56a117.25,117.25,0,0,0-6.77,12.18C11.39,150.91,10.81,163.21,17,171c4.2,5.25,11.1,7.92,20.5,7.92a70.53,70.53,0,0,0,16.53-2.24l51.17,33.14,2.26,2.18,2.21-2.14L178,165.59a25.13,25.13,0,0,0,11.5-21.16l.06-57.94-7.17,10.88-.05,47.06a18,18,0,0,1-8.23,15.15l-37.29,24.18,19.29-18.6C161,160.5,163.84,152.77,163.84,144.5ZM32.68,69.69A18,18,0,0,1,41,54.46L77.86,31,59,48.83c-4.92,4.66-7.86,12.46-7.86,20.86V91.23a229.2,229.2,0,0,0-18.5,21.63ZM63.17,174c1.18-.4,2.4-.82,3.63-1.27l11.44,11Zm33-60.25a8.8,8.8,0,0,0,2.12,2c1.66,2.44,4.05,4.48,8,3.21,1.62-.68,4.93-3.4,6.76-3.64l-.55,1.39a44.17,44.17,0,0,0-5.87,3.32C102,121.5,98.59,119.13,96.18,113.8Zm4.63,1.43a26.85,26.85,0,0,1,6.27,2.63l-1.15.59a25.31,25.31,0,0,0-5.3-2.23c-4.25-1.68-7.2-5.89-4.79-10.77a6.9,6.9,0,0,0,.3,2.64C95.87,111.19,97.4,113.79,100.82,115.23Zm13.57-12.15a21.69,21.69,0,0,1-6.29-2.6l1.15-.58a19.17,19.17,0,0,0,5.37,2.16c3.39,1.09,7.09,4.86,4.58,10.89a8.06,8.06,0,0,0-.28-2.7C119.2,107.13,117.8,104.53,114.38,103.07Zm2.75,2.53a6.71,6.71,0,0,1,.93,1.33,5.9,5.9,0,0,1,0,1.59,13,13,0,0,0-.93-1.51A8,8,0,0,0,117.14,105.6Zm-4,3.51a5.64,5.64,0,1,1-5.64-5.64A5.64,5.64,0,0,1,113.14,109.12Zm-1.69-9.57a8.06,8.06,0,0,1,1.84.43,5.92,5.92,0,0,1,1.14,1.55,8.29,8.29,0,0,0-1.76-.61A5.17,5.17,0,0,0,111.45,99.55Zm5.37,2.82c-1.6-2.69-5.17-4.5-8-3-1.62.69-5,3.29-6.81,3.55l.54-1.39c1-.18,3.38-1.84,5.91-3.19,3.2-1.27,8.45.18,10.41,6A8.24,8.24,0,0,0,116.81,102.37Zm-12.58-3a7,7,0,0,1,1.56-1,10.1,10.1,0,0,1,1.12.16,6.89,6.89,0,0,0-1.39.85Zm4.59-1.75c-2.61-.77-6,.8-7.31,4.84a28.72,28.72,0,0,1-2.58,6.29l-.58-1.15a26.8,26.8,0,0,0,2.15-5.37c.86-3.33,4.55-7.33,10.46-5A5,5,0,0,0,108.82,97.6ZM98,105.28a11.24,11.24,0,0,1,.29-1.73,4.31,4.31,0,0,1,1.57-1,5.59,5.59,0,0,0-.5,1.53A9.66,9.66,0,0,0,98,105.28Zm2.69-5.34c-2.75,2-4.33,5-2.86,7.92.66,1.66,2.6,4,3.6,6.91l-1.52-.61c-.17-1-1.8-3.4-3.13-5.95-1.23-3.21-.22-8.29,5.59-10.18A6.84,6.84,0,0,0,100.67,99.94Zm-2.8,11.16-.05,1.51a6,6,0,0,1-.86-1.42,7.25,7.25,0,0,1,0-1.5A6.31,6.31,0,0,0,97.87,111.1Zm6.36,7.81-1.92-.3a3.94,3.94,0,0,1-1.44-1.76,4.94,4.94,0,0,0,1.61.54A5.78,5.78,0,0,0,104.23,118.91Zm6.7,0a8.55,8.55,0,0,1-1.39.86,5.24,5.24,0,0,1-1-.07,3.35,3.35,0,0,0,1.08-.82Zm-6.67,2.11a6.66,6.66,0,0,0,2.44-.45c3.12.18,5.57-1.37,6.92-4.83a21.93,21.93,0,0,1,2.5-6.3l.62,1.14a17.75,17.75,0,0,0-2.09,5.37A7.46,7.46,0,0,1,104.26,121.05Zm12.94-8.46a6.18,6.18,0,0,1-.46,2,4.07,4.07,0,0,1-1.51,1.23,5.86,5.86,0,0,0,.54-1.73A5.05,5.05,0,0,0,117.21,112.59Zm-5,7.93a8.24,8.24,0,0,0,1.94-2c2.45-1.67,4.3-5.26,3-8-.66-1.93-3.26-5-3.51-6.84l1.39.55c.35,1.54,2.1,3.23,3.16,5.93C119.65,113.55,118,118.45,112.22,120.52Zm4.39,72.78c.78-3.48,1.65-7,2.5-10.38,1-4,2-8.23,2.94-12.37,2-9.52,4.08-22,1.59-34.44-.37-1.86-.85-3.73-1.31-5.53a64.24,64.24,0,0,1-1.88-9.16c-.33-3.18-.35-9,3.09-13.27,3.16,17.11,8.89,29.54,17.5,38,1.81,1.77,3.38,2.4,4.8,1.9l.28-.1,0-.3c-.68-5.93-3.26-11.44-5.75-16.76a72.38,72.38,0,0,1-5-12.66,71.43,71.43,0,0,1-1.37-7.85c-.28-2.06-.57-4.19-1-6.27-1.2-5.75-3.44-10-6.67-12.66-5-4.07-12-4.3-18.77-3.95-6.83-.36-13.84-.13-18.81,3.95-3.23,2.65-5.47,6.91-6.67,12.66-.43,2.08-.72,4.21-1,6.27a71.43,71.43,0,0,1-1.37,7.85,72.36,72.36,0,0,1-5,12.66c-2.49,5.32-5.07,10.82-5.75,16.76l0,.3.28.1c1.42.5,3-.13,4.8-1.9,8.61-8.44,14.34-20.87,17.5-38,3.43,4.27,3.42,10.09,3.09,13.27a64.16,64.16,0,0,1-1.88,9.16c-.46,1.8-.94,3.67-1.31,5.53-2.49,12.4-.45,24.92,1.6,34.44.89,4.14,1.93,8.33,2.94,12.37.84,3.39,1.71,6.88,2.49,10.35L74.12,169.89c2.73-1.15,5.49-2.4,8.22-3.71l1.19-.57-.27-7.84-4,2c-27.66,13.28-49.34,15.9-56.6,6.82-4.43-5.55-3.41-15.67,2.87-28.61v6.51A25.13,25.13,0,0,0,37,165.59l2.54,1.65,10.39-1.82-9-5.84a18,18,0,0,1-8.23-15.15v-19a192.06,192.06,0,0,1,18.5-23.67v42.7c0,7.15,2.15,14,5.9,18.71.19.24.21.27,7.95-1.21l.71-.14L63.88,160a13.45,13.45,0,0,1-1.19-1.32c-2.77-3.5-4.35-8.7-4.35-14.26V69.69c0-6.38,2.15-12.37,5.62-15.65l43.55-41.19L151.06,54c3.47,3.28,5.62,9.28,5.62,15.65l-.05,24.8,7.22-8.83v-16c0-8.4-2.94-16.2-7.86-20.86L137.16,31,174,54.46a18.24,18.24,0,0,1,7,8.35l.09.22h.23a.45.45,0,0,0,.42-.29c0-.07,3.7-6.83,3.33-7.36a25.48,25.48,0,0,0-7.22-7l-27-17.17c20.32-7.41,35.82-7.58,41.54-.43,5.44,6.8,1.81,18.57-2.2,27.24-6,13.09-17,28.07-31.7,43.32l-1,1-.83,42c0,6.31-2.12,12.28-5.54,15.58Z"/>
  <path class="cls-2" d="M107.77,51.67c-6.4,0-11.6,6.18-11.6,13.79,0,5.16,2.29,11,5.57,14.32a8.24,8.24,0,0,0,5.75,2.71h0c6.39,0,11.87-9.37,11.87-17S114.17,51.67,107.77,51.67Z"/>
</svg>